# xmcd
#
# Track frame offsets:
#	150
#	20847
#	39922
#	54344
#	74861
#	94845
#	117077
#	136377
#	160174
#
# Disc length: 2379 seconds
#
# Revision: 0
# Processed by: cddbd v1.5.2PL0 Copyright (c) Steve Scherf et al.
# Submitted via: EasyCDDAExtractor 2011.0.0.0
#
DISCID=7a094909
DTITLE=Giovanni and Richard - Ofrenda de Amor
DYEAR=1900
DGENRE=
TTITLE0=Llegar a Ti
TTITLE1=Las 99 (Visión Pastoral)
TTITLE2=Ofrenda de Amor
TTITLE3=Por Amarte Asi
TTITLE4=Solo Pienso en Ti
TTITLE5=Cuando se Acaba el Amor
TTITLE6=Juan en la Ciudad
TTITLE7=Tierra Santa
TTITLE8=Fruta Seca
EXTD=
EXTT0=
EXTT1=
EXTT2=
EXTT3=
EXTT4=
EXTT5=
EXTT6=
EXTT7=
EXTT8=
PLAYORDER=
